<svg width="18" height="18" viewBox="0 0 18 18" fill="none" xmlns="http://www.w3.org/2000/svg">
<path d="M17.1939 12.0306C17.0716 12.1165 16.7196 12.3188 16.1201 12.3188C15.2447 12.3188 13.7555 11.8736 11.6339 9.75232L10.9286 9.0471L10.8818 9.0003L10.9286 8.95409L11.6339 8.24827C13.7555 6.12726 15.2447 5.68209 16.1201 5.68209C16.7196 5.68209 17.0716 5.88439 17.1939 5.96999C18.0761 5.1063 18.0139 4.18219 17.9875 3.979C17.4895 3.85875 17.1166 3.60136 16.879 3.21484C16.4545 2.52412 16.5848 1.63141 16.6417 1.34707C16.5641 1.3524 16.4406 1.35921 16.2883 1.35921C15.4852 1.35921 14.1338 1.18298 14.015 0.0130323C13.9715 0.00740473 13.8995 0.000296189 13.8062 0.000296189C13.4353 0.000296189 12.7175 0.106628 12.0312 0.807411C12.2551 1.11959 13.2312 2.88784 9.75223 6.36658L9.0466 7.07211L9.0001 7.1189L8.95329 7.07211L8.24766 6.36658C4.76841 2.88755 5.74479 1.1193 5.96845 0.807115C5.28208 0.106332 4.5646 0 4.19372 0C4.1004 0 4.02842 0.00710854 3.98487 0.0127361C3.86638 1.18268 2.51467 1.35892 1.71158 1.35892C1.55902 1.35892 1.43609 1.3524 1.35818 1.34677C1.41505 1.63111 1.54569 2.52353 1.12089 3.21454C0.883019 3.60136 0.510358 3.85845 0.0117978 3.97871C-0.0145669 4.18219 -0.0767759 5.106 0.805702 5.96969C0.92775 5.88409 1.27997 5.68179 1.87925 5.68179C2.75491 5.68179 4.24378 6.12697 6.3657 8.24798L7.07103 8.95379L7.11783 9L7.07103 9.0468L6.3657 9.75202C4.24378 11.873 2.75491 12.3185 1.87925 12.3185C1.27997 12.3185 0.92775 12.1162 0.805702 12.0303C-0.0761834 12.8943 -0.0142707 13.8181 0.0117978 14.0216C0.510062 14.1418 0.883019 14.3989 1.12089 14.7858C1.5454 15.4768 1.41505 16.3689 1.35818 16.6532C1.43579 16.6479 1.55902 16.6411 1.71158 16.6411C2.51497 16.6411 3.86638 16.8173 3.98487 17.9873C4.02872 17.9929 4.1004 17.9997 4.19401 17.9997C4.5649 17.9997 5.28237 17.894 5.96845 17.1932C5.7445 16.881 4.76841 15.1125 8.24766 11.6337L8.95329 10.9285L9.0001 10.8817L9.0466 10.9285L9.75223 11.6337C13.2315 15.1125 12.2551 16.8807 12.0312 17.1932C12.7175 17.894 13.435 17.9997 13.8059 17.9997C13.8995 17.9997 13.9715 17.9929 14.015 17.9873C14.1338 16.8173 15.4852 16.6411 16.2883 16.6411C16.4409 16.6411 16.5638 16.6476 16.6417 16.6532C16.5845 16.3689 16.4542 15.4765 16.879 14.7858C17.1166 14.3986 17.4895 14.1418 17.9875 14.0216C18.0139 13.8181 18.0764 12.8943 17.1939 12.0306Z" fill="#C29647"/>
</svg>
